:FULLY-SPECIFIED
:FORCE-ALL-JOINTS-BE-3DOF
:DEGREES
1
root 6.24314 16.836 -28.1378 9.0217 -2.52979 -3.05774
lfemur -20.3712 2.30257 -19.9954
ltibia 35.927 0 0
lfoot -38.654 3.93715 0
ltoes 38.9541 0 0
rfemur -19.4747 0.22019 19.5256
rtibia 36.0342 0 0
rfoot -30.3779 -10.4967 0
rtoes 21.4483 0 0
lowerback -2.05144 3.66971 -5.03766
upperback -2.66728 5.00355 3.49279
thorax -2.36397 2.67023 6.42441
lowerneck -9.84699 -2.36864 1.94815
upperneck -1.37933 -3.32542 -1.65382
head 1.16433 -1.69823 -0.975663
lclavicle -1.65488e-14 -3.69739e-14 0
lhumerus -41.7253 -10.8128 99.8312
lradius 34.5094 0 0
lwrist 2.17521 0 0
lhand -10.5949 9.65639 0
lfingers 7.12502 0 0
lthumb 15.4107 39.062 0
rclavicle -1.65488e-14 -3.69739e-14 0
rhumerus -43.273 -4.86223 -84.2703
rradius 40.4763 0 0
rwrist 9.89469 0 0
rhand -23.7965 -22.476 0
rfingers 7.12502 0 0
rthumb 2.67393 -52.439 0
2
root 6.23474 16.8391 -28.1336 9.059 -2.52101 -3.03394
lfemur -20.3491 2.27841 -19.9873
ltibia 35.8376 -0 0
lfoot -38.5685 3.963 0.000289291
ltoes 38.8991 -0 0
rfemur -19.3433 0.489499 19.5204
rtibia 35.7746 -0 0
rfoot -30.2886 -10.7994 -0.0035415
rtoes 21.2786 -0 0
lowerback -2.18935 3.62982 -4.91016
upperback -2.63905 4.95282 3.41166
thorax -2.23336 2.63505 6.27865
lowerneck -9.84335 -2.34509 1.96752
upperneck -1.43123 -3.29761 -1.59198
head 1.14807 -1.68323 -0.957761
lclavicle -1.65488e-14 -3.69739e-14 0
lhumerus -41.7358 -10.858 99.7134
lradius 34.5871 -0 0
lwrist 2.26623 0 0
lhand -10.6484 9.27804 0.00265165
lfingers 7.12502 -0 0
lthumb 15.3592 38.6875 0.00252849
rclavicle -1.65488e-14 -3.69739e-14 0
rhumerus -43.1727 -4.87011 -84.4224
rradius 40.4447 -0 0
rwrist 9.92818 0 0
rhand -23.9626 -22.3272 -0.00323605
rfingers 7.12502 -0 0
rthumb 2.51349 -52.2913 -0.00310336
3
root 6.22634 16.8421 -28.1294 9.09631 -2.51225 -3.01014
lfemur -20.327 2.25424 -19.9792
ltibia 35.7482 -0 0
lfoot -38.483 3.98885 0.000540011
ltoes 38.8441 -0 0
rfemur -19.212 0.75882 19.5158
rtibia 35.5151 -0 0
rfoot -30.1992 -11.102 -0.00661101
rtoes 21.109 -0 0
lowerback -2.32734 3.59023 -4.78256
upperback -2.61075 4.90213 3.33051
thorax -2.10267 2.6002 6.13281
lowerneck -9.8397 -2.32155 1.98688
upperneck -1.4831 -3.26973 -1.53016
head 1.13182 -1.66823 -0.939864
lclavicle -1.65488e-14 -3.69739e-14 0
lhumerus -41.7463 -10.9033 99.5956
lradius 34.6647 -0 0
lwrist 2.35725 0 0
lhand -10.7019 8.8997 0.00494998
lfingers 7.12502 -0 0
lthumb 15.3076 38.313 0.00472006
rclavicle -1.65488e-14 -3.69739e-14 0
rhumerus -43.0724 -4.87773 -84.5745
rradius 40.4131 -0 0
rwrist 9.96167 0 0
rhand -24.1288 -22.1784 -0.00604073
rfingers 7.12502 -0 0
rthumb 2.35303 -52.1435 -0.00579303
4
root 6.21793 16.8452 -28.1253 9.13362 -2.5035 -2.98633
lfemur -20.305 2.23007 -19.9711
ltibia 35.6587 -0 0
lfoot -38.3975 4.0147 0.00075216
ltoes 38.7891 -0 0
rfemur -19.0806 1.02815 19.5119
rtibia 35.2555 -0 0
rfoot -30.1098 -11.4047 -0.00920845
rtoes 20.9393 -0 0
lowerback -2.46542 3.55095 -4.65488
upperback -2.58238 4.85148 3.24934
thorax -1.97189 2.56569 5.98689
lowerneck -9.83604 -2.29801 2.00625
upperneck -1.53493 -3.24181 -1.46837
head 1.11558 -1.65322 -0.921971
lclavicle -1.65488e-14 -3.69739e-14 0
lhumerus -41.7567 -10.9486 99.4778
lradius 34.7424 -0 0
lwrist 2.44828 0 0
lhand -10.7554 8.52135 0.0068949
lfingers 7.12502 -0 0
lthumb 15.256 37.9385 0.00657464
rclavicle -1.65488e-14 -3.69739e-14 0
rhumerus -42.972 -4.88508 -84.7266
rradius 40.3815 -0 0
rwrist 9.99515 0 0
rhand -24.2949 -22.0297 -0.00841399
rfingers 7.12502 -0 0
rthumb 2.19257 -51.9958 -0.00806897
5
root 6.20953 16.8482 -28.1211 9.17093 -2.49476 -2.96251
lfemur -20.2829 2.2059 -19.963
ltibia 35.5693 -0 0
lfoot -38.3121 4.04056 0.000925737
ltoes 38.7341 -0 0
rfemur -18.9493 1.29749 19.5085
rtibia 34.996 -0 0
rfoot -30.0205 -11.7074 -0.0113337
rtoes 20.7696 -0 0
lowerback -2.60358 3.51198 -4.52711
upperback -2.55394 4.80087 3.16815
thorax -1.84103 2.53151 5.84091
lowerneck -9.83238 -2.27446 2.02562
upperneck -1.58674 -3.21383 -1.4066
head 1.09933 -1.63821 -0.904082
lclavicle -1.65488e-14 -3.69739e-14 0
lhumerus -41.7669 -10.9938 99.3599
lradius 34.8201 -0 0
lwrist 2.5393 0 0
lhand -10.809 8.143 0.00848631
lfingers 7.12502 -0 0
lthumb 15.2045 37.564 0.00809212
rclavicle -1.65488e-14 -3.69739e-14 0
rhumerus -42.8716 -4.89216 -84.8787
rradius 40.3499 -0 0
rwrist 10.0286 0 0
rhand -24.461 -21.8809 -0.0103558
rfingers 7.12502 -0 0
rthumb 2.03211 -51.8481 -0.00993115
6
root 6.20113 16.8513 -28.1169 9.20824 -2.48604 -2.93869
lfemur -20.2608 2.18172 -19.955
ltibia 35.4799 -0 0
lfoot -38.2266 4.06641 0.00106074
ltoes 38.6792 -0 0
rfemur -18.818 1.56683 19.5058
rtibia 34.7364 -0 0
rfoot -29.9311 -12.0101 -0.0129868
rtoes 20.6 -0 0
lowerback -2.74182 3.47332 -4.39925
upperback -2.52543 4.7503 3.08695
thorax -1.71008 2.49766 5.69484
lowerneck -9.8287 -2.25092 2.04499
upperneck -1.63851 -3.18579 -1.34487
head 1.0831 -1.62319 -0.886198
lclavicle -1.65488e-14 -3.69739e-14 0
lhumerus -41.7771 -11.0392 99.2421
lradius 34.8978 -0 0
lwrist 2.63032 0 0
lhand -10.8625 7.76464 0.00972415
lfingers 7.12502 -0 0
lthumb 15.1529 37.1895 0.00927246
rclavicle -1.65488e-14 -3.69739e-14 0
rhumerus -42.7713 -4.89898 -85.0308
rradius 40.3183 -0 0
rwrist 10.0621 0 0
rhand -24.6272 -21.7321 -0.0118661
rfingers 7.12502 -0 0
rthumb 1.87164 -51.7003 -0.0113795
7
root 6.19273 16.8543 -28.1128 9.24556 -2.47734 -2.91486
lfemur -20.2388 2.15755 -19.9469
ltibia 35.3905 -0 0
lfoot -38.1411 4.09226 0.00115717
ltoes 38.6242 -0 0
rfemur -18.6866 1.83619 19.5037
rtibia 34.4769 -0 0
rfoot -29.8417 -12.3128 -0.0141676
rtoes 20.4303 -0 0
lowerback -2.88013 3.43496 -4.2713
upperback -2.49685 4.69977 3.00572
thorax -1.57905 2.46415 5.54871
lowerneck -9.82502 -2.22738 2.06437
upperneck -1.69025 -3.15769 -1.28316
head 1.06687 -1.60817 -0.868318
lclavicle -1.65488e-14 -3.69739e-14 0
lhumerus -41.7872 -11.0845 99.1242
lradius 34.9755 -0 0
lwrist 2.72134 0 0
lhand -10.9161 7.38629 0.0106084
lfingers 7.12502 -0 0
lthumb 15.1013 36.815 0.0101156
rclavicle -1.65488e-14 -3.69739e-14 0
rhumerus -42.6708 -4.90553 -85.183
rradius 40.2867 -0 0
rwrist 10.0956 0 0
rhand -24.7933 -21.5833 -0.0129449
rfingers 7.12502 -0 0
rthumb 1.71117 -51.5526 -0.0124141
8
root 6.18433 16.8574 -28.1086 9.28289 -2.46865 -2.89103
lfemur -20.2167 2.13336 -19.9389
ltibia 35.3011 -0 0
lfoot -38.0556 4.11811 0.00121503
ltoes 38.5692 -0 0
rfemur -18.5553 2.10554 19.5022
rtibia 34.2173 -0 0
rfoot -29.7523 -12.6155 -0.0148761
rtoes 20.2606 -0 0
lowerback -3.01853 3.39691 -4.14327
upperback -2.4682 4.64928 2.92447
thorax -1.44794 2.43097 5.4025
lowerneck -9.82133 -2.20384 2.08374
upperneck -1.74196 -3.12955 -1.22147
head 1.05064 -1.59314 -0.850442
lclavicle -1.65488e-14 -3.69739e-14 0
lhumerus -41.7972 -11.1298 99.0064
lradius 35.0531 -0 0
lwrist 2.81237 0 0
lhand -10.9696 7.00793 0.0111389
lfingers 7.12502 -0 0
lthumb 15.0497 36.4405 0.0106215
rclavicle -1.65488e-14 -3.69739e-14 0
rhumerus -42.5704 -4.91182 -85.3352
rradius 40.2551 -0 0
rwrist 10.1291 0 0
rhand -24.9595 -21.4345 -0.0135922
rfingers 7.12502 -0 0
rthumb 1.5507 -51.4048 -0.0130349
9
root 6.17593 16.8604 -28.1044 9.32021 -2.45998 -2.86719
lfemur -20.1946 2.10918 -19.9308
ltibia 35.2116 -0 0
lfoot -37.9701 4.14397 0.00123432
ltoes 38.5142 -0 0
rfemur -18.4239 2.3749 19.5014
rtibia 33.9577 -0 0
rfoot -29.6629 -12.9182 -0.0151123
rtoes 20.0909 -0 0
lowerback -3.15701 3.35917 -4.01514
upperback -2.43948 4.59883 2.84321
thorax -1.31675 2.39812 5.25622
lowerneck -9.81764 -2.1803 2.10312
upperneck -1.79364 -3.10134 -1.15982
head 1.03442 -1.57811 -0.832571
lclavicle -1.65488e-14 -3.69739e-14 0
lhumerus -41.807 -11.1752 98.8885
lradius 35.1308 -0 0
lwrist 2.90339 0 0
lhand -11.0232 6.62958 0.0113158
lfingers 7.12502 -0 0
lthumb 14.9981 36.0659 0.0107901
rclavicle -1.65488e-14 -3.69739e-14 0
rhumerus -42.47 -4.91784 -85.4873
rradius 40.2236 -0 0
rwrist 10.1626 0 0
rhand -25.1256 -21.2856 -0.013808
rfingers 7.12502 -0 0
rthumb 1.39022 -51.257 -0.0132418
10
root 6.16752 16.8635 -28.1002 9.35754 -2.45133 -2.84335
lfemur -20.1726 2.08499 -19.9228
ltibia 35.1222 -0 0
lfoot -37.8846 4.16982 0.00121503
ltoes 38.4592 -0 0
rfemur -18.2925 2.64426 19.5011
rtibia 33.6982 -0 0
rfoot -29.5734 -13.2208 -0.0148761
rtoes 19.9213 -0 0
lowerback -3.29557 3.32174 -3.88694
upperback -2.41069 4.54843 2.76192
thorax -1.18548 2.36561 5.10987
lowerneck -9.81393 -2.15677 2.12249
upperneck -1.84529 -3.07308 -1.09819
head 1.0182 -1.56307 -0.814704
lclavicle -1.65488e-14 -3.69739e-14 0
lhumerus -41.8168 -11.2206 98.7706
lradius 35.2085 -0 0
lwrist 2.99441 0 0
lhand -11.0768 6.25123 0.0111389
lfingers 7.12502 -0 0
lthumb 14.9465 35.6914 0.0106215
rclavicle -1.65488e-14 -3.69739e-14 0
rhumerus -42.3695 -4.9236 -85.6395
rradius 40.192 -0 0
rwrist 10.1961 0 0
rhand -25.2918 -21.1368 -0.0135922
rfingers 7.12502 -0 0
rthumb 1.22975 -51.1093 -0.0130349
